<?xml version="1.0" encoding="iso-8859-1"?>
<!-- Generator: Adobe Illustrator 19.0.0, SVG Export Plug-In . SVG Version: 6.00 Build 0)  -->
<svg version="1.1" id="Capa_1" xmlns="http://www.w3.org/2000/svg" xmlns:xlink="http://www.w3.org/1999/xlink" x="0px" y="0px"
	 viewBox="0 0 512 512" style="enable-background:new 0 0 512 512;" xml:space="preserve">
<path style="fill:#35495E;" d="M394.311,512H117.689c-11.37,0-20.586-9.216-20.586-20.586V20.586C97.103,9.216,106.319,0,117.689,0
	h276.63c11.361,0,20.577,9.216,20.577,20.586v470.837C414.897,502.784,405.681,512,394.311,512z"/>
<path style="fill:#4C6780;" d="M359,229.517H153c-11.37,0-20.586-9.216-20.586-20.586V55.896c0-11.37,9.216-20.586,20.586-20.586
	h206.009c11.361,0,20.577,9.216,20.577,20.586V208.94C379.586,220.301,370.37,229.517,359,229.517z"/>
<rect x="167.724" y="70.621" style="fill:#4C8056;" width="176.552" height="88.276"/>
<g>
	<path style="fill:#73A67B;" d="M203.034,132.414c-4.873,0-8.828-3.955-8.828-8.828v-17.655c0-4.873,3.955-8.828,8.828-8.828
		c4.873,0,8.828,3.955,8.828,8.828v17.655C211.862,128.459,207.907,132.414,203.034,132.414z"/>
	<path style="fill:#73A67B;" d="M238.345,132.414c-4.873,0-8.828-3.955-8.828-8.828v-17.655c0-4.873,3.955-8.828,8.828-8.828
		c4.873,0,8.828,3.955,8.828,8.828v17.655C247.172,128.459,243.218,132.414,238.345,132.414z"/>
	<path style="fill:#73A67B;" d="M308.966,132.414c-4.873,0-8.828-3.955-8.828-8.828v-17.655c0-4.873,3.955-8.828,8.828-8.828
		s8.828,3.955,8.828,8.828v17.655C317.793,128.459,313.838,132.414,308.966,132.414z"/>
	<path style="fill:#73A67B;" d="M273.655,132.414c-4.873,0-8.828-3.955-8.828-8.828v-17.655c0-4.873,3.955-8.828,8.828-8.828
		c4.873,0,8.828,3.955,8.828,8.828v17.655C282.483,128.459,278.528,132.414,273.655,132.414z"/>
</g>
<g>
	<path style="fill:#6B88A1;" d="M203.034,203.034h-35.31c-4.873,0-8.828-3.955-8.828-8.828s3.955-8.828,8.828-8.828h35.31
		c4.873,0,8.828,3.955,8.828,8.828S207.907,203.034,203.034,203.034z"/>
	<path style="fill:#6B88A1;" d="M344.276,203.034h-35.31c-4.873,0-8.828-3.955-8.828-8.828s3.955-8.828,8.828-8.828h35.31
		c4.873,0,8.828,3.955,8.828,8.828S349.149,203.034,344.276,203.034z"/>
	<path style="fill:#6B88A1;" d="M273.655,203.034h-35.31c-4.873,0-8.828-3.955-8.828-8.828s3.955-8.828,8.828-8.828h35.31
		c4.873,0,8.828,3.955,8.828,8.828S278.528,203.034,273.655,203.034z"/>
</g>
<g>
	<rect x="132.414" y="264.828" style="fill:#4C6780;" width="52.966" height="35.31"/>
	<rect x="326.621" y="264.828" style="fill:#4C6780;" width="52.966" height="35.31"/>
	<rect x="229.517" y="264.828" style="fill:#4C6780;" width="52.966" height="35.31"/>
	<rect x="132.414" y="335.448" style="fill:#4C6780;" width="52.966" height="35.31"/>
	<rect x="326.621" y="335.448" style="fill:#4C6780;" width="52.966" height="35.31"/>
	<rect x="229.517" y="335.448" style="fill:#4C6780;" width="52.966" height="35.31"/>
</g>
<rect x="132.414" y="406.069" style="fill:#E64C3C;" width="52.966" height="35.31"/>
<rect x="326.621" y="406.069" style="fill:#24AE5F;" width="52.966" height="35.31"/>
<rect x="229.517" y="406.069" style="fill:#F0C419;" width="52.966" height="35.31"/>
<path style="fill:#4C6780;" d="M379.586,485.517H132.414c-4.873,0-8.828-3.955-8.828-8.828c0-4.873,3.955-8.828,8.828-8.828h247.172
	c4.873,0,8.828,3.955,8.828,8.828C388.414,481.562,384.459,485.517,379.586,485.517z"/>
<g>
</g>
<g>
</g>
<g>
</g>
<g>
</g>
<g>
</g>
<g>
</g>
<g>
</g>
<g>
</g>
<g>
</g>
<g>
</g>
<g>
</g>
<g>
</g>
<g>
</g>
<g>
</g>
<g>
</g>
</svg>
